# File produced by Open Asset Import Library (http://www.assimp.sf.net)
# (assimp v3.1.172307092)

mtllib Keypad2.mtl

# vertex positions
v -0.639981 56.610176 0.164500
v 0.639981 56.610176 0.164500
v 0.639981 57.894852 0.164500
v -0.639981 57.894852 0.164500
v -0.639981 58.445427 0.164500
v 0.639981 58.445427 0.164500
v 0.639981 58.445427 -0.164500
v -0.639981 58.445427 -0.164500
v -0.522758 57.850861 -0.104310
v 0.522758 57.850861 -0.104310
v 0.522758 56.720150 -0.104310
v -0.522758 56.720150 -0.104310
v -0.639981 56.610176 -0.164500
v 0.639981 56.610176 -0.164500
v 0.639981 57.894852 -0.164500
v -0.639981 57.894852 -0.164500
v -0.639981 58.445427 -0.272972
v 0.639981 58.445427 -0.272972
v 0.522758 58.335453 -0.272972
v -0.522758 58.335453 -0.272972
v 0.522758 57.850861 -0.272972
v 0.639981 57.894852 -0.272972
v 0.639981 56.610176 -0.272972
v 0.522758 56.720150 -0.272972
v -0.639981 56.610176 -0.272972
v -0.522758 56.720150 -0.272972
v -0.639981 57.894852 -0.272972
v -0.522758 57.850861 -0.272972
v -0.469767 58.218719 -0.089965
v 0.469767 58.218719 -0.089965
v 0.469767 57.967594 -0.089965
v -0.469767 57.967594 -0.089965
v -0.522758 58.335453 -0.164500
v 0.522758 58.335453 -0.164500
v 0.469767 58.218719 -0.164500
v -0.469767 58.218719 -0.164500
v 0.522758 57.850861 -0.164500
v 0.469767 57.967594 -0.164500
v -0.522758 57.850861 -0.164500
v -0.469767 57.967594 -0.164500
v 0.522758 56.720150 -0.164500
v -0.522758 56.720150 -0.164500
v -0.143988 57.779930 -0.093904
v 0.111479 57.779930 -0.093904
v 0.093069 57.761517 -0.174816
v -0.125577 57.761517 -0.174816
v 0.093069 57.542873 -0.174816
v -0.125577 57.542873 -0.174816
v 0.111479 57.524460 -0.093904
v -0.143988 57.524460 -0.093904
v -0.457850 57.779930 -0.093904
v -0.202383 57.779930 -0.093904
v -0.220793 57.761517 -0.174816
v -0.439439 57.761517 -0.174816
v -0.220793 57.542873 -0.174816
v -0.439439 57.542873 -0.174816
v -0.202383 57.524460 -0.093904
v -0.457850 57.524460 -0.093904
v 0.191260 57.779930 -0.093904
v 0.446726 57.779930 -0.093904
v 0.428316 57.761517 -0.174816
v 0.209670 57.761517 -0.174816
v 0.428316 57.542873 -0.174816
v 0.209670 57.542873 -0.174816
v 0.446726 57.524460 -0.093904
v 0.191260 57.524460 -0.093904
v 0.191260 57.445862 -0.093904
v 0.446726 57.445862 -0.093904
v 0.428316 57.427444 -0.174816
v 0.209670 57.427444 -0.174816
v 0.428316 57.208801 -0.174816
v 0.209670 57.208801 -0.174816
v 0.446726 57.190388 -0.093904
v 0.191260 57.190388 -0.093904
v -0.457850 57.445862 -0.093904
v -0.202383 57.445862 -0.093904
v -0.220793 57.427444 -0.174816
v -0.439439 57.427444 -0.174816
v -0.220793 57.208801 -0.174816
v -0.439439 57.208801 -0.174816
v -0.202383 57.190388 -0.093904
v -0.457850 57.190388 -0.093904
v 0.191260 57.104088 -0.093904
v 0.446726 57.104088 -0.093904
v 0.428316 57.085674 -0.174816
v 0.209670 57.085674 -0.174816
v 0.428316 56.867031 -0.174816
v 0.209670 56.867031 -0.174816
v 0.446726 56.848618 -0.093904
v 0.191260 56.848618 -0.093904
v -0.457850 57.104088 -0.093904
v -0.202383 57.104088 -0.093904
v -0.220793 57.085674 -0.174816
v -0.439439 57.085674 -0.174816
v -0.220793 56.867031 -0.174816
v -0.439439 56.867031 -0.174816
v -0.202383 56.848618 -0.093904
v -0.457850 56.848618 -0.093904
v -0.143988 57.445862 -0.093904
v 0.111479 57.445862 -0.093904
v 0.093069 57.427444 -0.174816
v -0.125577 57.427444 -0.174816
v 0.093069 57.208801 -0.174816
v -0.125577 57.208801 -0.174816
v 0.111479 57.190388 -0.093904
v -0.143988 57.190388 -0.093904
v -0.143988 57.104088 -0.093904
v 0.111479 57.104088 -0.093904
v 0.093069 57.085674 -0.174816
v -0.125577 57.085674 -0.174816
v 0.093069 56.867031 -0.174816
v -0.125577 56.867031 -0.174816
v 0.111479 56.848618 -0.093904
v -0.143988 56.848618 -0.093904

# UV coordinates
vt 0.077239 0.497478
vt 0.373845 0.497477
vt 0.373845 0.795176
vt 0.077239 0.795176
vt 0.077240 0.922760
vt 0.373845 0.922761
vt 0.373845 0.999000
vt 0.077239 0.999000
vt 0.473958 0.378120
vt 0.231681 0.378119
vt 0.231682 0.116099
vt 0.473959 0.116101
vt 0.077239 0.421239
vt 0.373845 0.421239
vt 0.450084 0.497477
vt 0.450085 0.795176
vt 0.001001 0.497478
vt 0.001000 0.795176
vt 0.452080 0.603091
vt 0.748686 0.603091
vt 0.721522 0.628575
vt 0.479244 0.628574
vt 0.125416 0.273450
vt 0.096319 0.266393
vt 0.252755 0.024315
vt 0.269452 0.053333
vt 0.519293 0.023695
vt 0.502342 0.051527
vt 0.672988 0.266666
vt 0.643698 0.273218
vt 0.001001 0.922760
vt 0.744586 0.378092
vt 0.706452 0.370882
vt 0.488786 0.114104
vt 0.271068 0.114104
vt 0.271068 0.055910
vt 0.488787 0.055910
vt 0.022701 0.376484
vt 0.060830 0.370201
vt 0.450084 0.922760
vt 0.712045 0.575619
vt 0.452189 0.575958
vt 0.465823 0.546101
vt 0.698959 0.545838
vt 0.452000 0.436333
vt 0.465046 0.466110
vt 0.711694 0.435975
vt 0.698100 0.465837
vt 0.475662 0.532892
vt 0.687456 0.534156
vt 0.476536 0.477790
vt 0.688275 0.479047
vt 0.451970 0.421535
vt 0.711646 0.421173
vt 0.879611 0.394021
vt 0.617592 0.394049
vt 0.617590 0.380102
vt 0.879609 0.380074
vt 0.375315 0.394075
vt 0.375313 0.380127
vt 0.113294 0.394103
vt 0.113293 0.380155
vt 0.452080 0.577954
vt 0.748686 0.577954
vt 0.694359 0.655707
vt 0.452081 0.655709
vt 0.452080 0.630573
vt 0.694358 0.630571
vt 0.074568 0.251971
vt 0.240377 0.002393
vt 0.879614 0.419159
vt 0.617595 0.419186
vt 0.530848 0.001000
vt 0.375316 0.419211
vt 0.695142 0.252074
vt 0.113297 0.419239
vt 0.766570 0.363962
vt 0.001000 0.394114
vt 0.001002 0.419250
vt 0.001000 0.361993
vt 0.991906 0.394010
vt 0.991909 0.419146
vt 0.015963 0.001000
vt 0.075162 0.001000
vt 0.070896 0.020229
vt 0.020229 0.020230
vt 0.070896 0.070896
vt 0.020230 0.070896
vt 0.075163 0.090124
vt 0.015964 0.090125
vt 0.090126 0.075162
vt 0.090124 0.015961
vt 0.001000 0.075163
vt 0.001000 0.015962
vt 0.214722 0.329513
vt 0.155523 0.329513
vt 0.159790 0.310285
vt 0.210457 0.310284
vt 0.159789 0.259618
vt 0.210456 0.259617
vt 0.155523 0.240389
vt 0.214722 0.240389
vt 0.140561 0.255352
vt 0.140561 0.314552
vt 0.229685 0.255352
vt 0.229685 0.314552
vt 0.526243 0.746828
vt 0.467043 0.746829
vt 0.471310 0.727600
vt 0.521976 0.727599
vt 0.471309 0.676934
vt 0.521975 0.676933
vt 0.467042 0.657704
vt 0.526242 0.657704
vt 0.452080 0.672667
vt 0.452081 0.731868
vt 0.541205 0.672666
vt 0.541205 0.731867
vt 0.113211 0.181244
vt 0.054012 0.181245
vt 0.058278 0.162016
vt 0.108945 0.162015
vt 0.058278 0.111349
vt 0.108944 0.111349
vt 0.054011 0.092120
vt 0.113210 0.092119
vt 0.039048 0.107083
vt 0.039049 0.166283
vt 0.128173 0.107083
vt 0.128174 0.166283
vt 0.475956 0.272030
vt 0.475955 0.212831
vt 0.495185 0.217097
vt 0.495185 0.267764
vt 0.545851 0.217097
vt 0.545852 0.267763
vt 0.565080 0.212830
vt 0.565080 0.272030
vt 0.550118 0.197868
vt 0.490917 0.197868
vt 0.550118 0.286993
vt 0.490918 0.286992
vt 0.490916 0.288989
vt 0.550116 0.288989
vt 0.545850 0.308218
vt 0.495183 0.308218
vt 0.545850 0.358883
vt 0.495184 0.358884
vt 0.550116 0.378112
vt 0.490917 0.378113
vt 0.565079 0.363150
vt 0.565078 0.303951
vt 0.475954 0.363152
vt 0.475955 0.303951
vt 0.567075 0.361154
vt 0.567074 0.301954
vt 0.586303 0.306221
vt 0.586304 0.356886
vt 0.636969 0.306219
vt 0.636970 0.356886
vt 0.656198 0.301953
vt 0.656199 0.361153
vt 0.641236 0.286991
vt 0.582036 0.286991
vt 0.641237 0.376115
vt 0.582037 0.376115
vt 0.656841 0.090124
vt 0.597641 0.090125
vt 0.601908 0.070895
vt 0.652574 0.070895
vt 0.601907 0.020229
vt 0.652575 0.020228
vt 0.597642 0.001000
vt 0.656840 0.001000
vt 0.582679 0.015962
vt 0.582679 0.075162
vt 0.671803 0.015962
vt 0.671804 0.075162
vt 0.657267 0.092120
vt 0.716467 0.092120
vt 0.712201 0.111350
vt 0.661533 0.111349
vt 0.712200 0.162015
vt 0.661533 0.162015
vt 0.716466 0.181244
vt 0.657267 0.181244
vt 0.731428 0.166283
vt 0.731430 0.107083
vt 0.642304 0.166281
vt 0.642304 0.107081

# vertex normals
vn 0.000000 0.000000 1.000000
vn 0.000000 1.000000 0.000000
vn 0.000000 0.000000 -1.000000
vn 0.000000 -1.000000 0.000000
vn 1.000000 0.000000 0.000000
vn -1.000000 0.000000 0.000000
vn 0.000000 0.975066 -0.221915
vn 0.000000 -0.975076 -0.221870
vn 0.975077 0.000000 -0.221866
vn -0.975077 0.000000 -0.221866
vn 0.000000 -0.975066 -0.221915

# Mesh
g pCube117
usemtl initialShadingGroup
f 4/4/1 1/1/1 2/2/1
f 2/2/1 3/3/1 4/4/1
f 8/8/2 5/5/2 6/6/2
f 6/6/2 7/7/2 8/8/2
f 12/12/3 9/9/3 10/10/3
f 10/10/3 11/11/3 12/12/3
f 1/1/4 13/13/4 14/14/4
f 14/14/4 2/2/4 1/1/4
f 3/3/5 2/2/5 14/15/5
f 14/15/5 15/16/5 3/3/5
f 16/18/6 13/17/6 1/1/6
f 1/1/6 4/4/6 16/18/6
f 20/22/3 17/19/3 18/20/3
f 18/20/3 19/21/3 20/22/3
f 24/26/3 21/23/3 22/24/3
f 22/24/3 23/25/3 24/26/3
f 24/26/3 23/25/3 25/27/3
f 25/27/3 26/28/3 24/26/3
f 26/28/3 25/27/3 27/29/3
f 27/29/3 28/30/3 26/28/3
f 8/31/6 16/18/6 4/4/6
f 4/4/6 5/5/6 8/31/6
f 20/33/3 28/30/3 27/29/3
f 27/29/3 17/32/3 20/33/3
f 32/37/3 29/34/3 30/35/3
f 30/35/3 31/36/3 32/37/3
f 19/39/3 18/38/3 22/24/3
f 22/24/3 21/23/3 19/39/3
f 6/6/5 3/3/5 15/16/5
f 15/16/5 7/40/5 6/6/5
f 5/5/1 4/4/1 3/3/1
f 3/3/1 6/6/1 5/5/1
f 36/44/3 33/41/3 34/42/3
f 34/42/3 35/43/3 36/44/3
f 35/43/3 34/42/3 37/45/3
f 37/45/3 38/46/3 35/43/3
f 38/46/3 37/45/3 39/47/3
f 39/47/3 40/48/3 38/46/3
f 40/48/3 39/47/3 33/41/3
f 33/41/3 36/44/3 40/48/3
f 29/50/4 36/44/4 35/43/4
f 35/43/4 30/49/4 29/50/4
f 30/49/6 35/43/6 38/46/6
f 38/46/6 31/51/6 30/49/6
f 31/51/2 38/46/2 40/48/2
f 40/48/2 32/52/2 31/51/2
f 32/52/5 40/48/5 36/44/5
f 36/44/5 29/50/5 32/52/5
f 9/54/4 39/47/4 37/45/4
f 37/45/4 10/53/4 9/54/4
f 10/58/6 37/55/6 41/56/6
f 41/56/6 11/57/6 10/58/6
f 11/57/2 41/56/2 42/59/2
f 42/59/2 12/60/2 11/57/2
f 12/60/5 42/59/5 39/61/5
f 39/61/5 9/62/5 12/60/5
f 17/19/2 8/63/2 7/64/2
f 7/64/2 18/20/2 17/19/2
f 19/68/4 34/65/4 33/66/4
f 33/66/4 20/67/4 19/68/4
f 22/24/5 15/69/5 14/70/5
f 14/70/5 23/25/5 22/24/5
f 24/72/6 41/56/6 37/55/6
f 37/55/6 21/71/6 24/72/6
f 23/25/4 14/70/4 13/73/4
f 13/73/4 25/27/4 23/25/4
f 26/74/2 42/59/2 41/56/2
f 41/56/2 24/72/2 26/74/2
f 25/27/6 13/73/6 16/75/6
f 16/75/6 27/29/6 25/27/6
f 28/76/5 39/61/5 42/59/5
f 42/59/5 26/74/5 28/76/5
f 27/29/6 16/75/6 8/77/6
f 8/77/6 17/32/6 27/29/6
f 20/79/5 33/78/5 39/61/5
f 39/61/5 28/76/5 20/79/5
f 18/38/5 7/80/5 15/69/5
f 15/69/5 22/24/5 18/38/5
f 21/71/6 37/55/6 34/81/6
f 34/81/6 19/82/6 21/71/6

# Mesh
g pCube119
usemtl initialShadingGroup
f 46/86/7 43/83/7 44/84/7
f 44/84/7 45/85/7 46/86/7
f 48/88/3 46/86/3 45/85/3
f 45/85/3 47/87/3 48/88/3
f 50/90/8 48/88/8 47/87/8
f 47/87/8 49/89/8 50/90/8
f 44/92/9 49/91/9 47/87/9
f 47/87/9 45/85/9 44/92/9
f 46/86/10 48/88/10 50/93/10
f 50/93/10 43/94/10 46/86/10

# Mesh
g pCube120
usemtl initialShadingGroup
f 54/98/7 51/95/7 52/96/7
f 52/96/7 53/97/7 54/98/7
f 56/100/3 54/98/3 53/97/3
f 53/97/3 55/99/3 56/100/3
f 58/102/8 56/100/8 55/99/8
f 55/99/8 57/101/8 58/102/8
f 52/104/9 57/103/9 55/99/9
f 55/99/9 53/97/9 52/104/9
f 54/98/10 56/100/10 58/105/10
f 58/105/10 51/106/10 54/98/10

# Mesh
g pCube118
usemtl initialShadingGroup
f 62/110/7 59/107/7 60/108/7
f 60/108/7 61/109/7 62/110/7
f 64/112/3 62/110/3 61/109/3
f 61/109/3 63/111/3 64/112/3
f 66/114/8 64/112/8 63/111/8
f 63/111/8 65/113/8 66/114/8
f 60/116/9 65/115/9 63/111/9
f 63/111/9 61/109/9 60/116/9
f 62/110/10 64/112/10 66/117/10
f 66/117/10 59/118/10 62/110/10

# Mesh
g pCube123
usemtl initialShadingGroup
f 70/122/7 67/119/7 68/120/7
f 68/120/7 69/121/7 70/122/7
f 72/124/3 70/122/3 69/121/3
f 69/121/3 71/123/3 72/124/3
f 74/126/8 72/124/8 71/123/8
f 71/123/8 73/125/8 74/126/8
f 68/128/9 73/127/9 71/123/9
f 71/123/9 69/121/9 68/128/9
f 70/122/10 72/124/10 74/129/10
f 74/129/10 67/130/10 70/122/10

# Mesh
g pCube121
usemtl initialShadingGroup
f 78/134/7 75/131/7 76/132/7
f 76/132/7 77/133/7 78/134/7
f 80/136/3 78/134/3 77/133/3
f 77/133/3 79/135/3 80/136/3
f 82/138/8 80/136/8 79/135/8
f 79/135/8 81/137/8 82/138/8
f 76/140/9 81/139/9 79/135/9
f 79/135/9 77/133/9 76/140/9
f 78/134/10 80/136/10 82/141/10
f 82/141/10 75/142/10 78/134/10

# Mesh
g pCube126
usemtl initialShadingGroup
f 86/146/7 83/143/7 84/144/7
f 84/144/7 85/145/7 86/146/7
f 88/148/3 86/146/3 85/145/3
f 85/145/3 87/147/3 88/148/3
f 90/150/11 88/148/11 87/147/11
f 87/147/11 89/149/11 90/150/11
f 84/152/9 89/151/9 87/147/9
f 87/147/9 85/145/9 84/152/9
f 86/146/10 88/148/10 90/153/10
f 90/153/10 83/154/10 86/146/10

# Mesh
g pCube124
usemtl initialShadingGroup
f 94/158/7 91/155/7 92/156/7
f 92/156/7 93/157/7 94/158/7
f 96/160/3 94/158/3 93/157/3
f 93/157/3 95/159/3 96/160/3
f 98/162/11 96/160/11 95/159/11
f 95/159/11 97/161/11 98/162/11
f 92/164/9 97/163/9 95/159/9
f 95/159/9 93/157/9 92/164/9
f 94/158/10 96/160/10 98/165/10
f 98/165/10 91/166/10 94/158/10

# Mesh
g pCube122
usemtl initialShadingGroup
f 102/170/7 99/167/7 100/168/7
f 100/168/7 101/169/7 102/170/7
f 104/172/3 102/170/3 101/169/3
f 101/169/3 103/171/3 104/172/3
f 106/174/8 104/172/8 103/171/8
f 103/171/8 105/173/8 106/174/8
f 100/176/9 105/175/9 103/171/9
f 103/171/9 101/169/9 100/176/9
f 102/170/10 104/172/10 106/177/10
f 106/177/10 99/178/10 102/170/10

# Mesh
g pCube125
usemtl initialShadingGroup
f 110/182/7 107/179/7 108/180/7
f 108/180/7 109/181/7 110/182/7
f 112/184/3 110/182/3 109/181/3
f 109/181/3 111/183/3 112/184/3
f 114/186/11 112/184/11 111/183/11
f 111/183/11 113/185/11 114/186/11
f 108/188/9 113/187/9 111/183/9
f 111/183/9 109/181/9 108/188/9
f 110/182/10 112/184/10 114/189/10
f 114/189/10 107/190/10 110/182/10
